HIERARCHY
ROOT Hips
{
	OFFSET	0.00	0.00	0.00
	CHANNELS 6 Xposition Yposition Zposition Zrotation Xrotation Yrotation
	JOINT Spine
	{
		OFFSET	 0.00	0.01	 0.00
		CHANNELS 3 Zrotation Xrotation Yrotation
		JOINT Spine1
		{
			OFFSET	 0.00	 2.45913012437421	 0.00
			CHANNELS 3 Zrotation Xrotation Yrotation
            JOINT Neck
            {
                OFFSET	 0.00	 2.48462964506057	 0.00
                CHANNELS 3 Zrotation Xrotation Yrotation
                JOINT Head
                {
                    OFFSET	 0.00	 0.927524780924562	 0.00
                    CHANNELS 3 Zrotation Xrotation Yrotation
                    End Site 
                    {
                        OFFSET	 0.00	 1.14999962169752	 0.00
                    }
                }
            }
			JOINT LeftShoulder
			{
				OFFSET	 0.00	 2.48462964506057	 0.00
				CHANNELS 3 Zrotation Xrotation Yrotation
				JOINT LeftUpArm
				{
					OFFSET	 0.00	 1.24881979654096	 0.00
					CHANNELS 3 Zrotation Xrotation Yrotation
					JOINT LeftForeArm
					{
						OFFSET	 0.00	2.59758046908119	 0.00
						CHANNELS 3 Zrotation Xrotation Yrotation
						JOINT LeftHand
						{
							OFFSET	 0.00	2.45542024364365	 0.00
							CHANNELS 3 Zrotation Xrotation Yrotation
							JOINT LeftHandThumb 
							{
								OFFSET	 0.00	0.00	 0.00
								CHANNELS 3 Zrotation Xrotation Yrotation
								End Site
								{
									OFFSET	 0.00	0.00	1.00000003353624
								}
							}
							JOINT L_Wrist_End 
							{
								OFFSET	 0.00	0.99999967115358	 0.00
								CHANNELS 3 Zrotation Xrotation Yrotation
								End Site 
								{
									OFFSET	 0.00	 0.00	 0.00
								}
							}
						}
					}
				}
			}
			JOINT RightShoulder
			{
				OFFSET	 0.00	 2.48462964506057	 0.00
				CHANNELS 3 Zrotation Xrotation Yrotation
				JOINT RightUpArm
				{
					OFFSET	 0.00	 1.24881979654096	 0.00
					CHANNELS 3 Zrotation Xrotation Yrotation
					JOINT RightForeArm
					{
						OFFSET	 0.00	2.59758046908119	 0.00
						CHANNELS 3 Zrotation Xrotation Yrotation
						JOINT RightHand
						{
							OFFSET	 0.00	2.45542024364365	 0.00
							CHANNELS 3 Zrotation Xrotation Yrotation
							JOINT RightHandThumb 
							{
								OFFSET	 0.00	0.00	 0.00
								CHANNELS 3 Zrotation Xrotation Yrotation
								End Site
								{
									OFFSET	 0.00	0.00	1.00000003353624
								}
							}
							JOINT R_Wrist_End 
							{
								OFFSET	 0.00	0.99999967115358	 0.00
								CHANNELS 3 Zrotation Xrotation Yrotation
								End Site 
								{
									OFFSET	 0.00	 0.00	 0.00
								}
							}
						}
					}
				}
			}
		}
	}
	JOINT LeftUpLeg
	{
		OFFSET	 1.2719394002717	 0.00	 0.00
		CHANNELS 3 Zrotation Xrotation Yrotation
		JOINT LeftLowLeg
		{
			OFFSET	 0.00	-4.3429100912261	 0.00
			CHANNELS 3 Zrotation Xrotation Yrotation
			JOINT LeftFoot
			{
				OFFSET	 0.00	-4.48767017425826	 0.00
				CHANNELS 3 Zrotation Xrotation Yrotation
				JOINT LeftToeBase
                {
                    OFFSET	 0.00	0.00	 1.51507020887566
                    CHANNELS 3 Zrotation Xrotation Yrotation
                    End Site 
                    {
                        OFFSET	 0.00	0.00	 0.75000010571191
                    }
                }
			}
		}
	}
	JOINT RightUpLeg
	{
		OFFSET	 -1.2719393604653	 0.00	 0.00
		CHANNELS 3 Zrotation Xrotation Yrotation
		JOINT RightLowLeg
		{
			OFFSET	 0.00	-4.3429100912261	 0.00
			CHANNELS 3 Zrotation Xrotation Yrotation
			JOINT RightFoot
			{
				OFFSET	 0.00	-4.48767017425826	 0.00
				CHANNELS 3 Zrotation Xrotation Yrotation
				JOINT RightToeBase
                {
                    OFFSET	 0.00	0.00	 1.51507020887566
                    CHANNELS 3 Zrotation Xrotation Yrotation
                    End Site 
                    {
                        OFFSET	 0.00	0.00	 0.749999965609858
                    }
                }   
			}
		}
	}
}
MOTION 
Frames:	15 
Frame Time: 0.02 
  -4.884490051269531 -0.618739013671875 9.103800048828125 120.144 27.4332 -186.838 4.53823 32.7361 13.0543 -1.10414 5.91251 -9.03557 23.3992 53.704 8.749 -129.936 -66.9373 240.909 -106.0681 23.7739 -2.42758 25.7604 48.1191 -21.0743 0.0 37.845 0.0 29.5675 -1.48584 49.7155 0.0 0.0 0.0 0.0 0.0 0.0 108.248 7.94126 -4.72041 -44.674 54.4528 69.1252 0.0 25.7176 0.0 -17.5913 -10.2608 -40.5981 0.0 0.0 0.0 0.0 0.0 0.0 148.288 -78.36 153.509 0.0 55.1173 0.0 0.619437 -2.6212997 6.36903 0.0 -7.56324 0.0 -13.5023 -80.9254 -30.262 0.0 59.4652 0.0 22.8589 -13.2686 -1.9813 0.0 -13.08714 0.0 
  -4.881809997558594 -0.6310079956054687 9.0985302734375 120.343 27.4907 -186.98 4.59891 32.5776 12.8051 -0.859982 6.16732 -9.23521 22.0191 53.9036 10.3336 -129.21 -66.6648 241.382 -106.1625 23.958 -2.96972 25.4136 48.2576 -19.9054 0.0 37.1298 0.0 29.6184 -1.74047 49.6916 0.0 0.0 0.0 0.0 0.0 0.0 108.3932 7.55285 -4.80457 -45.576 55.6015 69.1155 0.0 27.7431 0.0 -14.3899 -6.45569 -33.6595 0.0 0.0 0.0 0.0 0.0 0.0 148.865 -78.3834 153.807 0.0 55.3107 0.0 0.622338 -2.7565994 6.5528 0.0 -7.51053 0.0 -13.2865 -80.9008 -30.0374 0.0 59.6119 0.0 23.017 -13.1954 -1.9795 0.0 -13.1985 0.0 
  -4.879609985351562 -0.6413269805908203 9.096119995117187 120.519 27.4434 -187.193 4.56431 32.4109 12.657 -0.646985 6.35745 -9.43429 20.6362 53.9831 11.9448 -128.357 -66.4286 241.816 -105.9524 24.069 -2.89087 25.5488 48.0573 -19.8572 0.0 36.4525 0.0 29.3762 -1.84374 49.7836 0.0 0.0 0.0 0.0 0.0 0.0 108.3568 7.14713 -4.54768 -45.9338 57.0757 69.0706 0.0 29.7281 0.0 -11.4854 -6.75949 -31.5806 0.0 0.0 0.0 0.0 0.0 0.0 148.953 -78.3053 153.706 0.0 55.4038 0.0 0.682926 -2.9347 6.63398 0.0 -7.47635 0.0 -12.6545 -80.9523 -29.45 0.0 59.6385 0.0 23.0628 -13.061199 -2.02515 0.0 -13.35453 0.0 
  -4.878059997558593 -0.6512110137939453 9.096840209960938 120.658 27.254 -187.382 4.53826 32.1853 12.4546 -0.461923 6.52532 -9.68998 18.6105 53.9601 14.3127 -127.222 -66.0749 242.291 -105.7424 24.0481 -3.09593 25.5672 47.8128 -19.6268 0.0 35.9802 0.0 28.9972 -1.8102 49.633 0.0 0.0 0.0 0.0 0.0 0.0 108.263 6.76103 -4.24027 -46.3313 58.7259 69.5879 0.0 31.7278 0.0 -9.63015 -8.15447 -30.3445 0.0 0.0 0.0 0.0 0.0 0.0 149.082 -78.1177 153.755 0.0 55.4259 0.0 0.728494 -3.0765 6.6087 0.0 -7.42895 0.0 -12.1046 -81.0709 -28.9759 0.0 59.5292 0.0 23.1044 -12.944599 -2.04956 0.0 -13.48311 0.0 
  -4.8755099487304685 -0.6635549926757812 9.098410034179688 120.836 26.9946 -187.561 4.70681 31.9947 12.1436 -0.5319 6.66704 -9.86003 17.1361 53.8353 15.9105 -126.367 -65.8934 242.987 -105.3078 23.8158 -3.44005 25.3812 47.9057 -19.8133 0.0 35.5289 0.0 28.917 -1.70864 49.8888 0.0 0.0 0.0 0.0 0.0 0.0 109.0837 6.46474 -5.59207 -49.9694 58.6084 71.8755 0.0 32.0173 0.0 -9.55827 -6.1678 -29.8723 0.0 0.0 0.0 0.0 0.0 0.0 149.541 -77.8791 154.137 0.0 55.4544 0.0 0.825093 -3.1616993 6.57665 0.0 -7.40303 0.0 -11.8622 -81.1702 -28.9054 0.0 59.3308 0.0 23.1868 -12.858801 -1.96312 0.0 -13.55971 0.0 
  -4.874280090332031 -0.676458969116211 9.101740112304688 120.943 26.7506 -187.607 4.75507 31.91 11.9228 -0.411515 6.61807 -10.0586 15.1644 53.8576 18.176 -125.45 -65.3434 243.209 -105.0315 23.6835 -4.00197 24.812 47.9867 -19.7174 0.0 35.3088 0.0 29.1178 -1.60622 49.9315 0.0 0.0 0.0 0.0 0.0 0.0 109.8099 6.12177 -7.03653 -53.7931 58.1798 74.6311 0.0 31.8098 0.0 -10.4944 -4.22839 -30.3098 0.0 0.0 0.0 0.0 0.0 0.0 150.158 -77.7312 154.788 0.0 55.4103 0.0 0.913953 -3.1648006 6.52245 0.0 -7.40735 0.0 -12.2744 -81.2026 -29.45 0.0 59.097 0.0 23.3299 -12.8449 -1.79255 0.0 -13.59189 0.0 
  -4.873139953613281 -0.6908200073242188 9.104229736328126 120.982 26.5835 -187.621 4.80472 31.9573 11.8274 -0.556702 6.45888 -10.1324 15.1843 54.2257 18.22 -125.83 -65.2123 242.908 -104.6885 23.6505 -3.79104 24.9343 48.0626 -20.625 0.0 34.9523 0.0 29.7246 -1.38192 50.2327 0.0 0.0 0.0 0.0 0.0 0.0 109.5624 5.6271 -6.1206 -53.1058 59.7479 75.3665 0.0 33.2858 0.0 -11.1029 -4.2973 -26.2223 0.0 0.0 0.0 0.0 0.0 0.0 150.534 -77.679 155.238 0.0 55.337 0.0 1.00806 -3.218399 6.48433 0.0 -7.40958 0.0 -12.7599 -81.1565 -30.0173 0.0 58.8629 0.0 23.4844 -12.8848 -1.53846 0.0 -13.527 0.0 
  -4.871010131835938 -0.7060369873046874 9.105900268554688 120.945 26.4654 -187.619 4.8665 32.0537 11.7863 -0.848783 6.3741 -10.1374 15.0661 54.4427 18.4308 -125.987 -65.089 242.654 -104.6895 23.5889 -4.23285 24.9789 48.648 -20.7099 0.0 34.5329 0.0 30.2277 -1.13708 50.2565 0.0 0.0 0.0 0.0 0.0 0.0 109.9233 5.45861 -6.629 -54.698 59.2303 76.7644 0.0 32.5745 0.0 -12.3762 -5.1703 -27.828 0.0 0.0 0.0 0.0 0.0 0.0 150.553 -77.6679 155.458 0.0 55.243 0.0 1.10595 -3.3176994 6.40571 0.0 -7.40846 0.0 -13.3291 -81.1165 -30.635 0.0 58.672 0.0 23.4309 -12.906099 -1.45369 0.0 -13.462 0.0 
  -4.8685000610351565 -0.7201519775390625 9.105679931640625 120.876 26.3842 -187.617 4.63578 32.139 12.0211 -0.765492 6.2603 -10.1352 15.3991 54.7957 18.0672 -126.165 -64.9407 242.387 -104.871 23.5617 -3.72338 25.9882 49.0053 -22.2137 0.0 34.0765 0.0 30.7137 -0.92712 50.1504 0.0 0.0 0.0 0.0 0.0 0.0 109.691696 5.50614 -6.44187 -54.4613 58.8859 76.7078 0.0 31.7069 0.0 -13.9271 -6.94386 -31.3959 0.0 0.0 0.0 0.0 0.0 0.0 150.581 -77.6736 155.623 0.0 55.1918 0.0 1.14151 -3.4559994 6.35532 0.0 -7.3904 0.0 -13.7764 -81.0995 -31.0386 0.0 58.5595 0.0 23.4205 -12.9457 -1.37243 0.0 -13.3991 0.0 
  -4.865840148925781 -0.7341159820556641 9.102960205078125 120.753 26.3019 -187.623 4.40808 32.239 12.3448 -0.824687 6.13319 -10.032 15.5193 55.0488 17.9879 -126.148 -64.8185 242.176 -104.9843 23.5255 -3.74787 26.408 49.7351 -22.9918 0.0 33.6014 0.0 31.1693 -0.188741 49.3198 0.0 0.0 0.0 0.0 0.0 0.0 109.6131 5.51863 -6.49718 -54.3032 57.9409 76.3693 0.0 30.4574 0.0 -15.1962 -6.48806 -32.1035 0.0 0.0 0.0 0.0 0.0 0.0 150.575 -77.6077 155.775 0.0 55.2569 0.0 1.17723 -3.5928993 6.2953 0.0 -7.39988 0.0 -13.9152 -81.1259 -31.0467 0.0 58.4761 0.0 23.4884 -13.113899 -1.22585 0.0 -13.23259 0.0 
  -4.862770080566406 -0.7515989685058594 9.098909912109375 120.684 26.2908 -187.55 4.29261 32.4361 12.5165 -0.841137 5.92516 -9.97903 15.6811 55.49 17.7938 -126.252 -64.5804 241.983 -105.022 23.4258 -3.80372 26.4846 50.4034 -23.7163 0.0 33.2441 0.0 31.742 0.648427 48.6563 0.0 0.0 0.0 0.0 0.0 0.0 109.0061 5.6164 -5.55932 -52.0914 57.9045 74.9915 0.0 30.4219 0.0 -16.4061 -8.47408 -32.7867 0.0 0.0 0.0 0.0 0.0 0.0 151.1 -77.6665 156.384 0.0 55.3327 0.0 1.22559 -3.6786003 6.32308 0.0 -7.40097 0.0 -14.6776 -81.025 -31.7447 0.0 58.4022 0.0 23.5151 -13.3444 -1.08357 0.0 -13.08438 0.0 
  -4.8606298828125 -0.7656829833984375 9.0918798828125 120.633 26.2206 -187.572 4.08345 32.5845 12.7898 -0.705409 5.70486 -9.90421 13.3813 55.7449 20.2667 -125.253 -63.9114 242.672 -105.111496 23.3508 -4.14414 26.2406 50.9379 -23.7513 0.0 33.2186 0.0 32.2989 0.980084 48.077 0.0 0.0 0.0 0.0 0.0 0.0 109.1302 5.63938 -6.22651 -53.1845 56.2982 75.1017 0.0 28.3572 0.0 -18.029 -5.91557 -32.0711 0.0 0.0 0.0 0.0 0.0 0.0 151.462 -77.5423 156.821 0.0 55.5571 0.0 1.23825 -3.8033009 6.31479 0.0 -7.41204 0.0 -14.6962 -81.0334 -31.6504 0.0 58.3445 0.0 23.5395 -13.598801 -1.015 0.0 -12.91767 0.0 
  -4.859150085449219 -0.780031967163086 9.083569946289062 120.639 26.1891 -187.608 3.92326 32.7492 12.9872 -0.572748 5.42733 -9.86297 13.2427 56.2256 20.3425 -125.375 -63.5019 242.449 -105.3247 23.4946 -4.05208 26.3588 50.9628 -23.8485 0.0 33.0679 0.0 32.5843 1.48561 47.8821 0.0 0.0 0.0 0.0 0.0 0.0 108.9492 5.62372 -6.25236 -53.1262 55.6245 75.2795 0.0 26.9798 0.0 -19.5451 -5.54281 -32.009 0.0 0.0 0.0 0.0 0.0 0.0 151.943 -77.4773 157.29 0.0 55.7726 0.0 1.29998 -3.9680996 6.41821 0.0 -7.39675 0.0 -14.7462 -81.0449 -31.5859 0.0 58.3928 0.0 23.707 -13.798401 -0.928001 0.0 -12.7931595 0.0 
  -4.856619873046875 -0.7981479644775391 9.075440063476563 120.58 26.2494 -187.574 3.96888 33.0536 12.9491 -0.914126 5.12183 -9.89154 14.1551 56.7421 19.2536 -126.032 -63.5175 242.229 -105.1751 23.591 -3.13215 27.2088 50.609 -24.8583 0.0 32.767 0.0 32.8696 1.92756 47.5704 0.0 0.0 0.0 0.0 0.0 0.0 109.0194 5.57563 -6.59479 -53.4827 54.9738 76.226 0.0 25.4133 0.0 -21.1249 -4.69769 -31.9482 0.0 0.0 0.0 0.0 0.0 0.0 152.531 -77.5585 157.871 0.0 55.9579 0.0 1.39734 -4.119301 6.61145 0.0 -7.34719 0.0 -15.5506 -81.0458 -32.1976 0.0 58.6217 0.0 23.8602 -13.8442 -0.866887 0.0 -12.82259 0.0 
  -4.855180053710938 -0.8132479858398437 9.068660278320312 120.637 26.2731 -187.671 3.84704 33.2729 12.9763 -0.708288 4.83456 -10.0135 13.4519 57.2203 19.8991 -125.9 -62.9943 242.315 -105.677704 24.0025 -3.85789 26.406 50.2481 -23.1349 0.0 32.669 0.0 32.8829 2.25692 46.9575 0.0 0.0 0.0 0.0 0.0 0.0 108.8846 5.5806 -6.92279 -54.5022 54.64 77.5937 0.0 23.7255 0.0 -22.7384 -3.23668 -31.3133 0.0 0.0 0.0 0.0 0.0 0.0 152.884 -77.5381 158.121 0.0 56.1699 0.0 1.47448 -4.2490997 6.77044 0.0 -7.38276 0.0 -15.6895 -81.1027 -32.2537 0.0 58.8533 0.0 23.9098 -13.778799 -0.921013 0.0 -12.89972 0.0 
